<svg width="20" height="20" viewBox="0 0 20 20" fill="none" xmlns="http://www.w3.org/2000/svg">
<g clip-path="url(#clip0_441_76)">
<path d="M5.26253 5.14666C5.0542 4.61499 5.06253 4.00749 5.15503 3.45166C5.79166 3.64296 6.38967 3.94478 6.9217 4.34333C7.15503 4.52166 7.46086 4.57916 7.74586 4.49333C8.47706 4.27401 9.23665 4.16393 10 4.16666C10.8009 4.16666 11.5617 4.28332 12.2525 4.49249C12.5375 4.57916 12.8434 4.52083 13.0759 4.34249C13.6076 3.94403 14.2054 3.64221 14.8417 3.45082C14.9342 4.00666 14.9417 4.61416 14.735 5.14499C14.61 5.46499 14.6725 5.83333 14.9084 6.09499C15.5117 6.76416 15.8334 7.53333 15.8334 8.33333C15.8334 10.095 14.1917 11.8225 11.555 12.3483C10.895 12.48 10.6375 13.3108 11.1425 13.7867C11.4667 14.0917 11.6667 14.5217 11.6667 15V17.5C11.6667 17.721 11.7545 17.933 11.9108 18.0892C12.0671 18.2455 12.279 18.3333 12.5 18.3333C12.721 18.3333 12.933 18.2455 13.0893 18.0892C13.2456 17.933 13.3334 17.721 13.3334 17.5V15C13.3334 14.525 13.2334 14.0733 13.055 13.6642C15.5692 12.7917 17.5 10.8275 17.5 8.33333C17.5 7.21083 17.0967 6.17916 16.4275 5.31499C16.6025 4.63166 16.5867 3.94333 16.52 3.41499C16.4609 2.94166 16.3784 2.32166 16.045 1.95166C15.5492 1.40249 14.7284 1.72583 14.145 1.92499C13.519 2.13601 12.9235 2.42882 12.3742 2.79583C11.5984 2.59756 10.8007 2.49816 10 2.49999C9.17169 2.49999 8.37253 2.60416 7.6242 2.79666C7.07485 2.42965 6.47942 2.13684 5.85336 1.92583C5.27003 1.72583 4.44836 1.40249 3.95253 1.95166C3.61253 2.32833 3.5417 2.89916 3.48086 3.38416L3.4767 3.41583C3.41003 3.94499 3.39503 4.63416 3.57003 5.31833C2.90336 6.18166 2.50003 7.21166 2.50003 8.33333C2.50003 10.8267 4.43086 12.7917 6.94503 13.6642C6.76337 14.0803 6.66865 14.5292 6.6667 14.9833L6.5267 15.0117C5.92919 15.0942 5.5467 15.02 5.2867 14.91C4.65336 14.6417 4.3267 13.9658 3.92836 13.4492C3.68003 13.1283 3.31836 12.7275 2.76336 12.5425C2.65951 12.5079 2.54986 12.4941 2.44068 12.5019C2.3315 12.5097 2.22492 12.5389 2.12703 12.5879C1.92933 12.6868 1.77904 12.8602 1.7092 13.07C1.63935 13.2797 1.65569 13.5086 1.75462 13.7063C1.85355 13.904 2.02695 14.0543 2.23669 14.1242C2.70169 14.2792 3.02336 15.0758 3.31836 15.4292C3.6292 15.8025 4.04253 16.1925 4.63503 16.4442C5.20336 16.6858 5.87086 16.7717 6.6667 16.6742V17.5C6.6667 17.721 6.75449 17.933 6.91077 18.0892C7.06705 18.2455 7.27902 18.3333 7.50003 18.3333C7.72104 18.3333 7.933 18.2455 8.08928 18.0892C8.24556 17.933 8.33336 17.721 8.33336 17.5V15C8.33336 14.5217 8.53336 14.0917 8.85753 13.7867C9.36336 13.31 9.10503 12.48 8.44503 12.3483C5.80753 11.8225 4.1667 10.095 4.1667 8.33333C4.1667 7.53499 4.48753 6.76583 5.09003 6.09666C5.32586 5.83499 5.38753 5.46666 5.26253 5.14666Z" fill="#838B84"/>
</g>
<defs>
<clipPath id="clip0_441_76">
<rect width="20" height="20" fill="white"/>
</clipPath>
</defs>
</svg>
